<svg width="24" height="24" viewBox="0 0 24 24" fill="none" xmlns="http://www.w3.org/2000/svg">
<g clip-path="url(#clip0_2_99)">
<path d="M5 13.5H19M12 13.5V24M6.5 11V6.5H5.328C4.66203 6.50001 4.015 6.72161 3.48886 7.12988C2.96272 7.53816 2.58738 8.10989 2.422 8.755L0.5 16.25V16.5H7.5V18C7.5 19.5 7.5 20.5 8.25 22C8.25 22 9 23.5 10 23.5M17.5 11V6.5H18.672C19.338 6.50001 19.985 6.72161 20.5111 7.12988C21.0373 7.53816 21.4126 8.10989 21.578 8.755L23.5 16.25V16.5H16.5V18C16.5 19.5 16.5 20.5 15.75 22C15.75 22 15 23.5 14 23.5M6.35 4.5C6.35 4.5 4.75 3.5 4.75 2.25C4.75 1.7864 4.93416 1.34179 5.26198 1.01398C5.58979 0.686164 6.0344 0.502 6.498 0.502C6.9616 0.502 7.40621 0.686164 7.73402 1.01398C8.06184 1.34179 8.246 1.7864 8.246 2.25C8.246 3.5 6.65 4.5 6.65 4.5H6.35ZM17.65 4.5C17.65 4.5 19.25 3.5 19.25 2.25C19.25 1.78587 19.0656 1.34075 18.7374 1.01256C18.4092 0.684374 17.9641 0.5 17.5 0.5C16.534 0.5 15.754 1.284 15.754 2.25C15.754 3.5 17.35 4.5 17.35 4.5H17.65Z" stroke="url(#paint0_linear_2_99)"/>
</g>
<defs>
<linearGradient id="paint0_linear_2_99" x1="12" y1="0.5" x2="12" y2="24" gradientUnits="userSpaceOnUse">
<stop stop-color="#FEFEFE"/>
<stop offset="1" stop-color="#666666"/>
</linearGradient>
<clipPath id="clip0_2_99">
<rect width="24" height="24" fill="white"/>
</clipPath>
</defs>
</svg>
