<svg width="31" height="31" viewBox="0 0 31 31" fill="none" xmlns="http://www.w3.org/2000/svg">
<path d="M27.3067 22.6443C26.3453 21.6756 24.0166 20.2618 22.8868 19.692C21.4155 18.951 21.2944 18.8904 20.138 19.7496C19.3666 20.3229 18.8538 20.8352 17.951 20.6426C17.0483 20.4501 15.0866 19.3645 13.3689 17.6522C11.6511 15.94 10.5026 13.9213 10.3094 13.0216C10.1163 12.1219 10.637 11.6151 11.2049 10.8419C12.0053 9.75207 11.9448 9.57042 11.2606 8.09914C10.7272 6.9548 9.27225 4.64796 8.29987 3.69132C7.25967 2.66384 7.25967 2.84548 6.58942 3.124C6.04373 3.35354 5.52023 3.63262 5.02549 3.95773C4.05674 4.60134 3.51909 5.13597 3.14309 5.93943C2.76709 6.74289 2.59817 8.6265 4.53991 12.154C6.48165 15.6814 7.84395 17.4851 10.6636 20.2969C13.4833 23.1087 15.6515 24.6206 18.8211 26.3982C22.7421 28.5943 24.2461 28.1662 25.052 27.7908C25.8579 27.4154 26.3949 26.8826 27.0397 25.9138C27.3657 25.4199 27.6454 24.897 27.8753 24.3517C28.1544 23.6839 28.336 23.6839 27.3067 22.6443Z" stroke="url(#paint0_linear_2_97)" stroke-width="1.9375" stroke-miterlimit="10"/>
<defs>
<linearGradient id="paint0_linear_2_97" x1="15.4994" y1="2.90674" x2="15.4994" y2="28.0953" gradientUnits="userSpaceOnUse">
<stop stop-color="#FEFEFE"/>
<stop offset="1" stop-color="#666666"/>
</linearGradient>
</defs>
</svg>
