<svg width="18" height="17" viewBox="0 0 18 17" fill="none" xmlns="http://www.w3.org/2000/svg">
<path d="M16 0C16.5304 0 17.0391 0.19592 17.4142 0.54466C17.7893 0.893399 18 1.36639 18 1.85958V14.8767C18 15.3699 17.7893 15.8429 17.4142 16.1916C17.0391 16.5403 16.5304 16.7363 16 16.7363H2C1.46957 16.7363 0.960859 16.5403 0.585786 16.1916C0.210714 15.8429 0 15.3699 0 14.8767V1.85958C0 1.36639 0.210714 0.893399 0.585786 0.54466C0.960859 0.19592 1.46957 0 2 0H16ZM15.5 14.4118V9.48388C15.5 8.67998 15.1565 7.909 14.5452 7.34055C13.9338 6.77211 13.1046 6.45276 12.24 6.45276C11.39 6.45276 10.4 6.93625 9.92 7.66149V6.62942H7.13V14.4118H9.92V9.82791C9.92 9.11197 10.54 8.5262 11.31 8.5262C11.6813 8.5262 12.0374 8.66334 12.2999 8.90746C12.5625 9.15158 12.71 9.48267 12.71 9.82791V14.4118H15.5ZM3.88 5.16965C4.32556 5.16965 4.75288 5.00507 5.06794 4.71213C5.383 4.41919 5.56 4.02188 5.56 3.60759C5.56 2.74289 4.81 2.03625 3.88 2.03625C3.43178 2.03625 3.00193 2.2018 2.68499 2.49648C2.36805 2.79117 2.19 3.19085 2.19 3.60759C2.19 4.4723 2.95 5.16965 3.88 5.16965ZM5.27 14.4118V6.62942H2.5V14.4118H5.27Z" fill="#9B9B9B"/>
</svg>
