<svg width="33" height="36" viewBox="0 0 33 36" fill="none" xmlns="http://www.w3.org/2000/svg">
<path d="M29.3333 31.9701H3.66667V3.99626H29.3333M29.3333 0H3.66667C2.69421 0 1.76157 0.421034 1.07394 1.17048C0.386308 1.91992 0 2.93639 0 3.99626V31.9701C0 33.03 0.386308 34.0465 1.07394 34.7959C1.76157 35.5453 2.69421 35.9664 3.66667 35.9664H29.3333C30.3058 35.9664 31.2384 35.5453 31.9261 34.7959C32.6137 34.0465 33 33.03 33 31.9701V3.99626C33 2.93639 32.6137 1.91992 31.9261 1.17048C31.2384 0.421034 30.3058 0 29.3333 0ZM24.75 26.4753C24.75 23.4781 19.25 21.9795 16.5 21.9795C13.75 21.9795 8.25 23.4781 8.25 26.4753V27.9739H24.75M16.5 18.4827C17.594 18.4827 18.6432 18.0091 19.4168 17.1659C20.1904 16.3228 20.625 15.1793 20.625 13.9869C20.625 12.7946 20.1904 11.651 19.4168 10.8079C18.6432 9.96479 17.594 9.49113 16.5 9.49113C15.406 9.49113 14.3568 9.96479 13.5832 10.8079C12.8096 11.651 12.375 12.7946 12.375 13.9869C12.375 15.1793 12.8096 16.3228 13.5832 17.1659C14.3568 18.0091 15.406 18.4827 16.5 18.4827Z" fill="url(#paint0_linear_2_105)"/>
<defs>
<linearGradient id="paint0_linear_2_105" x1="16.5" y1="0" x2="16.5" y2="35.9664" gradientUnits="userSpaceOnUse">
<stop stop-color="#FEFEFE"/>
<stop offset="1" stop-color="#666666"/>
</linearGradient>
</defs>
</svg>
